<svg width="446" height="535" viewBox="0 0 446 535" fill="none" xmlns="http://www.w3.org/2000/svg">
<g id="secondGraph">
<g id="J">
<circle id="Ellipse 1" cx="358" cy="244" r="24" stroke="black" stroke-width="2"/>
<path id="J_2" d="M359.795 234.545H361.909V247.023C361.909 248.136 361.705 249.082 361.295 249.861C360.886 250.639 360.31 251.23 359.565 251.634C358.821 252.037 357.943 252.239 356.932 252.239C355.977 252.239 355.128 252.065 354.384 251.719C353.639 251.366 353.054 250.866 352.628 250.219C352.202 249.571 351.989 248.801 351.989 247.909H354.068C354.068 248.403 354.19 248.835 354.435 249.205C354.685 249.568 355.026 249.852 355.457 250.057C355.889 250.261 356.381 250.364 356.932 250.364C357.54 250.364 358.057 250.236 358.483 249.98C358.909 249.724 359.233 249.349 359.455 248.855C359.682 248.355 359.795 247.744 359.795 247.023V234.545Z" fill="black"/>
</g>
<g id="K">
<circle id="Ellipse 1_2" cx="29" cy="438" r="24" stroke="black" stroke-width="2"/>
<path id="K_2" d="M23.1136 446V428.545H25.2273V437.205H25.4318L33.2727 428.545H36.0341L28.7045 436.42L36.0341 446H33.4773L27.4091 437.886L25.2273 440.341V446H23.1136Z" fill="black"/>
</g>
<g id="L">
<circle id="Ellipse 1_3" cx="358" cy="448" r="24" stroke="black" stroke-width="2"/>
<path id="L_2" d="M353.114 456V438.545H355.227V454.125H363.341V456H353.114Z" fill="black"/>
</g>
<g id="M">
<circle id="Ellipse 1_4" cx="201" cy="510" r="24" stroke="black" stroke-width="2"/>
<path id="M_2" d="M192.114 500.545H194.636L200.568 515.034H200.773L206.705 500.545H209.227V518H207.25V504.739H207.08L201.625 518H199.716L194.261 504.739H194.091V518H192.114V500.545Z" fill="black"/>
</g>
<g id="D">
<circle id="Ellipse 1_5" cx="287" cy="338" r="24" stroke="black" stroke-width="2"/>
<path id="D_2" d="M285.5 346H280.114V328.545H285.739C287.432 328.545 288.881 328.895 290.085 329.594C291.29 330.287 292.213 331.284 292.855 332.585C293.497 333.881 293.818 335.432 293.818 337.239C293.818 339.057 293.494 340.622 292.847 341.935C292.199 343.241 291.256 344.247 290.017 344.952C288.778 345.651 287.273 346 285.5 346ZM282.227 344.125H285.364C286.807 344.125 288.003 343.847 288.952 343.29C289.901 342.733 290.608 341.94 291.074 340.912C291.54 339.884 291.773 338.659 291.773 337.239C291.773 335.83 291.543 334.616 291.082 333.599C290.622 332.577 289.935 331.793 289.02 331.247C288.105 330.696 286.966 330.42 285.602 330.42H282.227V344.125Z" fill="black"/>
</g>
<g id="D_3">
<circle id="Ellipse 1_6" cx="151" cy="363" r="24" stroke="black" stroke-width="2"/>
<path id="I" d="M151.227 353.545V371H149.114V353.545H151.227Z" fill="black"/>
</g>
<g id="B">
<path id="B_2" d="M180.114 90V72.5455H186.216C187.432 72.5455 188.435 72.7557 189.224 73.1761C190.014 73.5909 190.602 74.1506 190.989 74.8551C191.375 75.554 191.568 76.3295 191.568 77.1818C191.568 77.9318 191.435 78.5511 191.168 79.0398C190.906 79.5284 190.56 79.9148 190.128 80.1989C189.702 80.483 189.239 80.6932 188.739 80.8295V81C189.273 81.0341 189.81 81.2216 190.349 81.5625C190.889 81.9034 191.341 82.392 191.705 83.0284C192.068 83.6648 192.25 84.4432 192.25 85.3636C192.25 86.2386 192.051 87.0256 191.653 87.7244C191.256 88.4233 190.628 88.9773 189.77 89.3864C188.912 89.7955 187.795 90 186.42 90H180.114ZM182.227 88.125H186.42C187.801 88.125 188.781 87.858 189.361 87.3239C189.946 86.7841 190.239 86.1307 190.239 85.3636C190.239 84.7727 190.088 84.2273 189.787 83.7273C189.486 83.2216 189.057 82.8182 188.5 82.517C187.943 82.2102 187.284 82.0568 186.523 82.0568H182.227V88.125ZM182.227 80.2159H186.148C186.784 80.2159 187.358 80.0909 187.869 79.8409C188.386 79.5909 188.795 79.2386 189.097 78.7841C189.403 78.3295 189.557 77.7955 189.557 77.1818C189.557 76.4148 189.29 75.7642 188.756 75.2301C188.222 74.6903 187.375 74.4205 186.216 74.4205H182.227V80.2159Z" fill="black"/>
<circle id="Ellipse 1_7" cx="187" cy="82" r="24" stroke="black" stroke-width="2"/>
</g>
<g id="A">
<circle id="Ellipse 1_8" cx="237" cy="160" r="24" stroke="black" stroke-width="2"/>
<path id="A_2" d="M230.83 168H228.614L235.023 150.545H237.205L243.614 168H241.398L236.182 153.307H236.045L230.83 168ZM231.648 161.182H240.58V163.057H231.648V161.182Z" fill="black"/>
</g>
<g id="H">
<circle id="Ellipse 1_9" cx="26" cy="246" r="24" stroke="black" stroke-width="2"/>
<path id="H_2" d="M19.1136 254V236.545H21.2273V244.318H30.5341V236.545H32.6477V254H30.5341V246.193H21.2273V254H19.1136Z" fill="black"/>
</g>
<g id="E">
<circle id="Ellipse 1_10" cx="308" cy="25" r="24" stroke="black" stroke-width="2"/>
<path id="E_2" d="M301.114 33V15.5455H311.648V17.4205H303.227V23.3182H311.102V25.1932H303.227V31.125H311.784V33H301.114Z" fill="black"/>
</g>
<g id="C">
<circle id="Ellipse 1_11" cx="421" cy="193" r="24" stroke="black" stroke-width="2"/>
<path id="C_2" d="M428.159 189H426.045C425.92 188.392 425.702 187.858 425.389 187.398C425.082 186.938 424.707 186.551 424.264 186.239C423.827 185.92 423.341 185.682 422.807 185.523C422.273 185.364 421.716 185.284 421.136 185.284C420.08 185.284 419.122 185.551 418.264 186.085C417.412 186.619 416.733 187.406 416.227 188.446C415.727 189.486 415.477 190.761 415.477 192.273C415.477 193.784 415.727 195.06 416.227 196.099C416.733 197.139 417.412 197.926 418.264 198.46C419.122 198.994 420.08 199.261 421.136 199.261C421.716 199.261 422.273 199.182 422.807 199.023C423.341 198.864 423.827 198.628 424.264 198.315C424.707 197.997 425.082 197.608 425.389 197.148C425.702 196.682 425.92 196.148 426.045 195.545H428.159C428 196.437 427.71 197.236 427.29 197.94C426.869 198.645 426.347 199.244 425.722 199.739C425.097 200.227 424.395 200.599 423.616 200.855C422.844 201.111 422.017 201.239 421.136 201.239C419.648 201.239 418.324 200.875 417.165 200.148C416.006 199.42 415.094 198.386 414.429 197.045C413.764 195.705 413.432 194.114 413.432 192.273C413.432 190.432 413.764 188.841 414.429 187.5C415.094 186.159 416.006 185.125 417.165 184.398C418.324 183.67 419.648 183.307 421.136 183.307C422.017 183.307 422.844 183.435 423.616 183.69C424.395 183.946 425.097 184.321 425.722 184.815C426.347 185.304 426.869 185.901 427.29 186.605C427.71 187.304 428 188.102 428.159 189Z" fill="black"/>
</g>
<g id="F">
<circle id="Ellipse 1_12" cx="142" cy="170" r="24" stroke="black" stroke-width="2"/>
<path id="F_2" d="M135.114 178V160.545H145.58V162.42H137.227V168.318H144.795V170.193H137.227V178H135.114Z" fill="black"/>
</g>
<g id="G">
<circle id="Ellipse 1_13" cx="76" cy="45" r="24" stroke="black" stroke-width="2"/>
<path id="G_2" d="M81.0455 41C80.858 40.4261 80.6108 39.9119 80.304 39.4574C80.0028 38.9972 79.642 38.6051 79.2216 38.2812C78.8068 37.9574 78.3352 37.7102 77.8068 37.5398C77.2784 37.3693 76.6989 37.2841 76.0682 37.2841C75.0341 37.2841 74.0938 37.5511 73.2472 38.0852C72.4006 38.6193 71.7273 39.4062 71.2273 40.446C70.7273 41.4858 70.4773 42.7614 70.4773 44.2727C70.4773 45.7841 70.7301 47.0597 71.2358 48.0994C71.7415 49.1392 72.4261 49.9261 73.2898 50.4602C74.1534 50.9943 75.125 51.2614 76.2045 51.2614C77.2045 51.2614 78.0852 51.0483 78.8466 50.6222C79.6136 50.1903 80.2102 49.5824 80.6364 48.7983C81.0682 48.0085 81.2841 47.0795 81.2841 46.0114L81.9318 46.1477H76.6818V44.2727H83.3295V46.1477C83.3295 47.5852 83.0227 48.8352 82.4091 49.8977C81.8011 50.9602 80.9602 51.7841 79.8864 52.3693C78.8182 52.9489 77.5909 53.2386 76.2045 53.2386C74.6591 53.2386 73.3011 52.875 72.1307 52.1477C70.9659 51.4205 70.0568 50.3864 69.4034 49.0455C68.7557 47.7045 68.4318 46.1136 68.4318 44.2727C68.4318 42.892 68.6165 41.6506 68.9858 40.5483C69.3608 39.4403 69.8892 38.4972 70.571 37.7188C71.2528 36.9403 72.0597 36.3438 72.9915 35.929C73.9233 35.5142 74.9489 35.3068 76.0682 35.3068C76.9886 35.3068 77.8466 35.446 78.642 35.7244C79.4432 35.9972 80.1562 36.3864 80.7812 36.892C81.4119 37.392 81.9375 37.9915 82.358 38.6903C82.7784 39.3835 83.0682 40.1534 83.2273 41H81.0455Z" fill="black"/>
<path id="Vector 8" d="M100.5 53.5L164 76M100.5 41L284 27.5M287.5 37L209 70.5M200.5 102L224.5 139.5M214 165.5L168 169.5M131 147.5L85.5 66M70 70.5L31.5 222M51 246.5H334M243 183.5L279.5 314.5M143 194L149 339M298 46.5L248.5 139.5M321.5 46.5L407.5 173.5M397 188L261 165.5M25.5 271L28.5 414.5M43.5 263.5L133.5 347.5M176.5 359.5L263.5 343.5M342 263.5L300.5 318M355.5 268L358.5 424.5M336.5 439.5L173.5 373.5M51 447.5L179 502.5M223 500.5L336.5 458.5" stroke="black" stroke-width="2"/>
</g>
</g>
</svg>
